#!OML:ASF F:\VICON\USERDATA\INSTALL\rory3\rory3.ASF
:FULLY-SPECIFIED
:DEGREES
901
root -2.60859 25.6432 -5.08142 -182.515 -178.78 183.851
lowerback 10.8887 1.36724 -2.68765
upperback 2.79278 1.4631 -1.35036
thorax -3.22005 0.738971 -0.086828
lowerneck -7.82762 -0.124169 -7.59531
upperneck 30.563 -0.286184 5.59151
head 11.1588 -0.326378 3.35454
rclavicle 3.5129e-015 1.61513e-015
rhumerus -30.0913 2.88901 -84.025
rradius 41.7556
rwrist 9.63727
rhand -21.7382 -0.164613
rfingers 7.12502
rthumb 4.66153 -30.0933
lclavicle 3.5129e-015 1.61513e-015
lhumerus -33.3813 22.2116 71.5045
lradius 26.2353
lwrist -0.987219
lhand -24.0312 23.2839
lfingers 7.12502
lthumb 2.44722 53.2496
rfemur -16.7985 10.4387 22.0077
rtibia 37.849
rfoot -14.9707 -5.02855
rtoes 9.9511
lfemur -24.2506 15.5371 -19.8183
ltibia 97.0304
lfoot -27.4047 3.74735
ltoes -30.2328
902
root -2.6262 25.6309 -5.0411 -182.461 -178.902 183.965
lowerback 10.9381 1.34467 -2.76666
upperback 2.82664 1.42285 -1.36566
thorax -3.21261 0.719153 -0.0535264
lowerneck -7.80151 -0.121022 -7.56768
upperneck 30.4685 -0.26597 5.52004
head 11.1158 -0.320847 3.32212
rclavicle -1.66016e-014 7.46685e-015
rhumerus -30.0624 2.93961 -83.8743
rradius 41.7514
rwrist 9.89695
rhand -21.7492 -0.25733
rfingers 7.12502
rthumb 4.65096 -30.1863
lclavicle -1.66016e-014 7.46685e-015
lhumerus -33.0548 22.1434 71.7973
lradius 26.303
lwrist -1.08483
lhand -24.1166 23.4107
lfingers 7.12502
lthumb 2.36479 53.3774
rfemur -16.7372 10.3813 21.9329
rtibia 37.9321
rfoot -15.4072 -4.95685
rtoes 10.3685
lfemur -24.947 15.3941 -19.7706
ltibia 97.8039
lfoot -25.3884 3.83352
ltoes -30.9981
903
root -2.64713 25.6165 -5.00214 -182.416 -179.02 183.882
lowerback 11.0029 1.30786 -2.69849
upperback 2.85508 1.38134 -1.32682
thorax -3.21726 0.698112 -0.0468342
lowerneck -8.18089 -0.392702 -8.10025
upperneck 30.6089 -0.658136 5.97445
head 11.2804 -0.505657 3.54939
rclavicle -1.22625e-014 1.28465e-014
rhumerus -30.0848 2.95816 -83.7485
rradius 41.8701
rwrist 9.97431
rhand -20.4439 -1.66672
rfingers 7.12502
rthumb 5.91127 -31.5643
lclavicle -1.22625e-014 1.28465e-014
lhumerus -32.7319 22.0756 72.0457
lradius 26.3355
lwrist -1.14346
lhand -24.3356 23.3036
lfingers 7.12502
lthumb 2.15328 53.2725
rfemur -16.6455 10.4151 22.1078
rtibia 37.9869
rfoot -15.7691 -4.99898
rtoes 11.3514
lfemur -25.7796 15.3791 -19.4768
ltibia 98.5951
lfoot -23.0704 4.34693
ltoes -32.4407
904
root -2.66882 25.6006 -4.96264 -182.415 -179.084 183.753
lowerback 11.1033 1.28161 -2.58871
upperback 2.86199 1.3567 -1.28585
thorax -3.26331 0.685644 -0.0646877
lowerneck -8.25819 -0.44513 -8.08918
upperneck 30.6815 -0.714 5.91644
head 11.33 -0.536925 3.52243
rclavicle -2.09283e-014 -1.2424e-014
rhumerus -30.1529 3.06727 -83.6592
rradius 41.9812
rwrist 9.7665
rhand -19.8332 -2.52076
rfingers 7.12502
rthumb 6.50082 -32.401
lclavicle -2.09283e-014 -1.2424e-014
lhumerus -32.5079 21.9641 72.2477
lradius 26.441
lwrist -1.20214
lhand -24.182 22.8943
lfingers 7.12502
lthumb 2.30163 52.8617
rfemur -16.4874 10.5282 22.3516
rtibia 38.0249
rfoot -16.0564 -5.05427
rtoes 11.8873
lfemur -26.4739 15.3294 -18.987
ltibia 99.4673
lfoot -20.7787 3.75168
ltoes -31.4597
905
root -2.68928 25.5833 -4.92351 -182.474 -179.075 183.794
lowerback 11.216 1.28451 -2.64324
upperback 2.88802 1.3499 -1.30374
thorax -3.29879 0.682605 -0.0538613
lowerneck -8.11956 -0.397772 -8.11307
upperneck 30.6063 -0.682896 6.02426
head 11.2688 -0.513292 3.5668
rclavicle -9.96408e-015 1.05107e-014
rhumerus -30.2072 3.09855 -83.6036
rradius 42.0493
rwrist 9.68002
rhand -20.967 -1.26402
rfingers 7.12502
rthumb 5.40618 -31.1751
lclavicle -9.96408e-015 1.05107e-014
lhumerus -32.3343 21.7579 72.4482
lradius 26.6347
lwrist -1.15175
lhand -24.2499 22.5828
lfingers 7.12502
lthumb 2.23604 52.5508
rfemur -16.2788 10.6907 22.4273
rtibia 38.0735
rfoot -16.414 -5.12466
rtoes 12.4433
lfemur -26.9782 15.2424 -18.5925
ltibia 100.369
lfoot -18.7931 2.50918
ltoes -28.2417
906
root -2.70763 25.5661 -4.88463 -182.479 -179.052 183.792
lowerback 11.2272 1.28624 -2.6532
upperback 2.93511 1.35213 -1.29417
thorax -3.25633 0.683117 -0.0381759
lowerneck -8.2978 -0.537231 -8.38457
upperneck 30.6604 -0.896087 6.29345
head 11.3461 -0.608914 3.6948
rclavicle -1.9807e-014 9.39258e-015
rhumerus -30.2084 3.15151 -83.5266
rradius 42.0956
rwrist 9.70924
rhand -22.2628 0.838835
rfingers 7.12502
rthumb 4.15501 -29.1004
lclavicle -1.9807e-014 9.39258e-015
lhumerus -32.1295 21.4496 72.7541
lradius 26.9342
lwrist -0.79928
lhand -24.3968 22.5323
lfingers 7.12502
lthumb 2.09411 52.5017
rfemur -16.1421 10.7958 22.5528
rtibia 38.1466
rfoot -16.8682 -5.18065
rtoes 13.3208
lfemur -27.639 15.2267 -18.2304
ltibia 101.251
lfoot -17.2605 1.63296
ltoes -26.0519
907
root -2.72535 25.5513 -4.84398 -182.445 -179.072 183.753
lowerback 11.1908 1.27803 -2.58908
upperback 2.97086 1.35146 -1.27849
thorax -3.19802 0.681842 -0.0564493
lowerneck -7.9988 -0.372797 -8.27456
upperneck 30.2993 -0.713089 6.34617
head 11.1259 -0.504627 3.70052
rclavicle -1.73595e-014 2.08724e-014
rhumerus -30.2097 3.28599 -83.4322
rradius 42.1303
rwrist 9.67022
rhand -21.9721 0.819012
rfingers 7.12502
rthumb 4.43573 -29.1145
lclavicle -1.73595e-014 2.08724e-014
lhumerus -31.9427 21.0525 73.0718
lradius 27.2509
lwrist -0.407502
lhand -24.2375 22.4363
lfingers 7.12502
lthumb 2.24801 52.4042
rfemur -16.0411 10.836 22.7294
rtibia 38.2503
rfoot -17.2693 -5.29007
rtoes 13.3288
lfemur -28.4622 15.2305 -17.9153
ltibia 102.063
lfoot -15.251 1.04328
ltoes -24.9891
908
root -2.74173 25.5376 -4.8034 -182.455 -179.157 183.669
lowerback 11.2516 1.2681 -2.4023
upperback 2.98023 1.35687 -1.2957
thorax -3.21726 0.683796 -0.181208
lowerneck -8.0615 -0.495849 -8.33473
upperneck 30.371 -0.86304 6.30944
head 11.1814 -0.58408 3.68364
rclavicle -2.4699e-014 1.22253e-014
rhumerus -30.278 3.2561 -83.3159
rradius 42.1867
rwrist 9.52172
rhand -20.5833 -1.41306
rfingers 7.12502
rthumb 5.77668 -31.3143
lclavicle -2.4699e-014 1.22253e-014
lhumerus -31.782 20.7516 73.2637
lradius 27.4593
lwrist -0.446743
lhand -24.0058 22.2715
lfingers 7.12502
lthumb 2.47174 52.237
rfemur -15.9113 10.8984 22.9711
rtibia 38.3887
rfoot -17.475 -5.58173
rtoes 12.3933
lfemur -29.2619 15.1795 -17.5656
ltibia 102.815
lfoot -12.9742 0.472662
ltoes -24.0781
909
root -2.75609 25.5217 -4.76369 -182.504 -179.255 183.586
lowerback 11.3684 1.24361 -2.18406
upperback 2.98657 1.34453 -1.32128
thorax -3.2692 0.676961 -0.331233
lowerneck -8.22732 -0.665787 -8.49028
upperneck 30.5934 -1.09531 6.40317
head 11.3247 -0.697863 3.72895
rclavicle -8.45301e-015 8.34896e-015
rhumerus -30.3106 3.0519 -83.1583
rradius 42.1248
rwrist 9.57745
rhand -20.1672 -1.87514
rfingers 7.12502
rthumb 6.17838 -31.765
lclavicle -8.45301e-015 8.34896e-015
lhumerus -31.6105 20.4331 73.459
lradius 27.6594
lwrist -0.54076
lhand -24.0237 22.5134
lfingers 7.12502
lthumb 2.45452 52.479
rfemur -15.7985 10.9585 23.2068
rtibia 38.5799
rfoot -17.6515 -5.8991
rtoes 11.7214
lfemur -30.0245 15.1013 -17.2244
ltibia 103.533
lfoot -11.3814 -0.149612
ltoes -22.5394
910
root -2.77071 25.5026 -4.72779 -182.57 -179.328 183.699
lowerback 11.5318 1.25742 -2.21678
upperback 2.98699 1.35128 -1.37779
thorax -3.35784 0.680913 -0.376311
lowerneck -7.72611 -0.478222 -8.42433
upperneck 30.3433 -0.914075 6.5437
head 11.1063 -0.593315 3.77748
rclavicle 3.60608e-015 -1.5996e-014
rhumerus -30.306 2.98611 -83.0379
rradius 41.9884
rwrist 9.57855
rhand -21.2443 -0.244362
rfingers 7.12502
rthumb 5.13849 -30.1621
lclavicle 3.60608e-015 -1.5996e-014
lhumerus -31.4813 19.9998 73.7213
lradius 27.9789
lwrist -0.458274
lhand -24.1152 22.5897
lfingers 7.12502
lthumb 2.36614 52.5563
rfemur -15.7339 10.9446 23.2105
rtibia 38.8468
rfoot -17.835 -6.08302
rtoes 11.4083
lfemur -30.8116 15.0217 -17.1655
ltibia 104.193
lfoot -10.0243 -0.752377
ltoes -20.0548
911
root -2.78462 25.4866 -4.69616 -182.637 -179.312 183.817
lowerback 11.7357 1.28305 -2.28442
upperback 2.96542 1.36746 -1.42731
thorax -3.49266 0.690027 -0.397255
lowerneck -8.07954 -0.665749 -8.54325
upperneck 30.7301 -1.16065 6.6095
head 11.3535 -0.712961 3.81231
rclavicle -3.57284e-014 2.00524e-014
rhumerus -30.3268 3.05731 -82.9875
rradius 41.9183
rwrist 9.51413
rhand -22.0083 0.715091
rfingers 7.12502
rthumb 4.40077 -29.2192
lclavicle -3.57284e-014 2.00524e-014
lhumerus -31.3975 19.5238 73.9759
lradius 28.3507
lwrist -0.164157
lhand -24.161 22.4786
lfingers 7.12502
lthumb 2.32185 52.4457
rfemur -15.7116 10.9456 23.189
rtibia 39.1663
rfoot -18.0512 -6.13206
rtoes 11.3056
lfemur -31.5964 15.0466 -17.1386
ltibia 104.77
lfoot -9.00342 -1.23928
ltoes -17.3797
912
root -2.79623 25.4707 -4.66802 -182.702 -179.309 183.856
lowerback 11.8829 1.29324 -2.27152
upperback 3.00118 1.37779 -1.43406
thorax -3.53572 0.695071 -0.415965
lowerneck -7.61806 -0.379068 -8.32476
upperneck 30.4484 -0.797005 6.5296
head 11.1133 -0.532694 3.77046
rclavicle 1.61513e-016 -1.01007e-014
rhumerus -30.2505 3.0549 -82.8478
rradius 41.8793
rwrist 9.50252
rhand -21.0232 -0.68054
rfingers 7.12502
rthumb 5.35195 -30.593
lclavicle 1.61513e-016 -1.01007e-014
lhumerus -31.2255 19.3012 74.2463
lradius 28.7047
lwrist 0.0858698
lhand -24.1323 22.8839
lfingers 7.12502
lthumb 2.34959 52.8507
rfemur -15.7569 10.9603 23.2276
rtibia 39.5255
rfoot -18.309 -6.1417
rtoes 11.2293
lfemur -32.3965 15.0963 -17.0658
ltibia 105.254
lfoot -8.96822 -1.26221
ltoes -16.5601
